<svg width="150" height="144" viewBox="0 0 150 144" fill="none" xmlns="http://www.w3.org/2000/svg">
<path d="M13.6307 130.909H0V91.6364H40.8922V104.727H23.9901C34.9628 120.502 53.7051 130.909 74.9691 130.909C91.237 130.909 106.839 124.703 118.342 113.655C129.845 102.607 136.307 87.6237 136.307 72H149.938C149.938 111.796 116.407 144 74.9691 144C49.6159 144 27.1933 131.891 13.6307 113.433V130.909ZM0 72C0 32.2036 33.5316 0 74.9691 0C100.322 0 122.745 12.1091 136.307 30.5673V13.0909H149.938V52.3636H109.046V39.2727H125.948C114.975 23.4982 96.233 13.0909 74.9691 13.0909C58.7011 13.0909 43.0995 19.2974 31.5963 30.345C20.0932 41.3926 13.6307 56.3763 13.6307 72H0Z" fill="#C2D3FF" fill-opacity="0.6"/>
</svg>
