<svg width="42" height="21" viewBox="0 0 42 21" fill="none" xmlns="http://www.w3.org/2000/svg">
<path d="M30.8894 0.544922H10.4338C8.74781 0.544681 7.08792 0.961329 5.60191 1.75777C4.11589 2.55421 2.84986 3.70574 1.91654 5.10982C0.983207 6.51391 0.41154 8.12699 0.252427 9.80546C0.0933153 11.4839 0.351696 13.1757 1.00457 14.7301C1.65744 16.2846 2.68454 17.6535 3.99443 18.715C5.30432 19.7765 6.85635 20.4976 8.51235 20.8142C10.1684 21.1307 11.8769 21.0329 13.486 20.5294C15.0951 20.0259 16.5547 19.1324 17.7348 17.9284H23.5839C24.7639 19.1323 26.2233 20.0257 27.8322 20.5293C29.441 21.0328 31.1494 21.1307 32.8053 20.8144C34.4611 20.498 36.0131 19.7772 37.323 18.716C38.6329 17.6549 39.6601 16.2863 40.3133 14.7322C40.9664 13.1781 41.2252 11.4866 41.0665 9.80824C40.9079 8.12992 40.3368 6.51685 39.404 5.11262C38.4713 3.70838 37.2058 2.55654 35.7202 1.75962C34.2347 0.962699 32.5752 0.545419 30.8894 0.544922ZM16.0579 11.5374C16.0579 11.7408 15.9771 11.9359 15.8332 12.0797C15.6894 12.2235 15.4943 12.3043 15.2909 12.3043H11.9676V15.6276C11.9676 15.831 11.8868 16.0261 11.743 16.1699C11.5992 16.3137 11.4041 16.3945 11.2007 16.3945H9.66688C9.46349 16.3945 9.26842 16.3137 9.12459 16.1699C8.98077 16.0261 8.89997 15.831 8.89997 15.6276V12.3043H5.57666C5.37327 12.3043 5.1782 12.2235 5.03437 12.0797C4.89055 11.9359 4.80975 11.7408 4.80975 11.5374V10.0036C4.80975 9.80016 4.89055 9.60509 5.03437 9.46127C5.1782 9.31744 5.37327 9.23664 5.57666 9.23664H8.89997V5.91334C8.89997 5.70994 8.98077 5.51487 9.12459 5.37105C9.26842 5.22722 9.46349 5.14642 9.66688 5.14642H11.2007C11.4041 5.14642 11.5992 5.22722 11.743 5.37105C11.8868 5.51487 11.9676 5.70994 11.9676 5.91334V9.23664H15.2909C15.4943 9.23664 15.6894 9.31744 15.8332 9.46127C15.9771 9.60509 16.0579 9.80016 16.0579 10.0036V11.5374ZM29.8623 16.3945C29.3567 16.3945 28.8625 16.2446 28.4421 15.9637C28.0217 15.6828 27.694 15.2835 27.5006 14.8164C27.3071 14.3493 27.2564 13.8353 27.3551 13.3394C27.4537 12.8435 27.6972 12.388 28.0547 12.0305C28.4122 11.673 28.8677 11.4295 29.3636 11.3309C29.8595 11.2322 30.3735 11.2829 30.8406 11.4763C31.3078 11.6698 31.707 11.9975 31.9879 12.4179C32.2688 12.8383 32.4187 13.3325 32.4187 13.8381C32.4187 14.5161 32.1494 15.1664 31.67 15.6458C31.1906 16.1252 30.5403 16.3945 29.8623 16.3945ZM33.9526 10.2592C33.447 10.2592 32.9527 10.1093 32.5323 9.82837C32.1119 9.54747 31.7843 9.14822 31.5908 8.6811C31.3973 8.21398 31.3467 7.69997 31.4453 7.20408C31.5439 6.70819 31.7874 6.25269 32.1449 5.89517C32.5024 5.53765 32.958 5.29418 33.4538 5.19554C33.9497 5.0969 34.4637 5.14753 34.9309 5.34101C35.398 5.5345 35.7972 5.86216 36.0781 6.28256C36.359 6.70295 36.509 7.1972 36.509 7.70281C36.509 8.38081 36.2396 9.03103 35.7602 9.51045C35.2808 9.98986 34.6306 10.2592 33.9526 10.2592Z" fill="#31467A"/>
</svg>
