<svg width="19" height="19" viewBox="0 0 19 19" fill="none" xmlns="http://www.w3.org/2000/svg">
<path d="M9.5 0C4.25328 0 0 4.25328 0 9.5C0 14.7467 4.25328 19 9.5 19C14.7467 19 19 14.7467 19 9.5C19 4.25328 14.7467 0 9.5 0ZM9.5 17.1613C5.26591 17.1613 1.83871 13.7347 1.83871 9.5C1.83871 5.26595 5.26526 1.83871 9.5 1.83871C13.7341 1.83871 17.1613 5.26526 17.1613 9.5C17.1613 13.7341 13.7347 17.1613 9.5 17.1613ZM13.6122 13.2899C13.244 13.6619 11.8681 14.8756 9.62588 14.8756C6.46827 14.8756 4.24443 12.5226 4.24443 9.45269C4.24443 6.42066 6.55335 4.11273 9.59822 4.11273C11.7254 4.11273 12.9975 5.13245 13.3367 5.44499C13.4164 5.5183 13.4675 5.61746 13.4811 5.72489C13.4947 5.83233 13.4698 5.9411 13.4108 6.03193L12.7154 7.10883C12.5682 7.33676 12.257 7.38778 12.045 7.22073C11.7158 6.96116 10.8264 6.35738 9.68123 6.35738C7.83091 6.35738 6.69654 7.71074 6.69654 9.42503C6.69654 11.0182 7.72653 12.631 9.69506 12.631C10.946 12.631 11.8725 11.9017 12.2128 11.5881C12.4147 11.402 12.7336 11.4334 12.8954 11.6547L13.6564 12.6954C13.7212 12.7835 13.7524 12.8918 13.7443 13.0008C13.7363 13.1099 13.6894 13.2124 13.6122 13.2899Z" fill="white" fill-opacity="0.57"/>
</svg>
