<svg width="13" height="13" viewBox="0 0 13 13" fill="none" xmlns="http://www.w3.org/2000/svg">
<path d="M12.1695 6.64464C12.1695 6.1565 12.1299 5.80028 12.0442 5.43088H6.47005V7.63411H9.74193C9.67599 8.18164 9.31977 9.00622 8.52817 9.5603L8.51707 9.63406L10.2795 10.9994L10.4016 11.0116C11.523 9.97591 12.1695 8.45209 12.1695 6.64464Z" fill="#4285F4"/>
<path d="M6.46998 12.4493C8.07292 12.4493 9.41861 11.9216 10.4015 11.0113L8.52809 9.56001C8.02676 9.90963 7.3539 10.1537 6.46998 10.1537C4.9 10.1537 3.5675 9.11807 3.0925 7.68661L3.02288 7.69253L1.19028 9.11079L1.16631 9.17742C2.14259 11.1168 4.14796 12.4493 6.46998 12.4493Z" fill="#34A853"/>
<path d="M3.09249 7.68666C2.96716 7.31725 2.89463 6.92143 2.89463 6.51246C2.89463 6.10345 2.96716 5.70767 3.0859 5.33827L3.08258 5.25959L1.22701 3.81854L1.1663 3.84742C0.76393 4.65221 0.533047 5.55596 0.533047 6.51246C0.533047 7.46896 0.76393 8.37267 1.1663 9.17746L3.09249 7.68666Z" fill="#FBBC05"/>
<path d="M6.46998 2.87112C7.58478 2.87112 8.33678 3.35267 8.76557 3.75509L10.4411 2.11913C9.41206 1.16263 8.07292 0.575531 6.46998 0.575531C4.14796 0.575531 2.14259 1.90803 1.16631 3.84741L3.08591 5.33825C3.5675 3.9068 4.9 2.87112 6.46998 2.87112Z" fill="#EB4335"/>
</svg>
