<svg width="43" height="43" viewBox="0 0 43 43" fill="none" xmlns="http://www.w3.org/2000/svg">
<path d="M21.0528 10.2529C15.08 10.2529 10.2623 15.0706 10.2623 21.0434C10.2623 27.0162 15.08 31.8339 21.0528 31.8339C27.0256 31.8339 31.8433 27.0162 31.8433 21.0434C31.8433 15.0706 27.0256 10.2529 21.0528 10.2529ZM21.0528 28.0587C17.193 28.0587 14.0375 24.9126 14.0375 21.0434C14.0375 17.1742 17.1836 14.0282 21.0528 14.0282C24.922 14.0282 28.0681 17.1742 28.0681 21.0434C28.0681 24.9126 24.9126 28.0587 21.0528 28.0587ZM34.8016 9.81149C34.8016 11.2108 33.6746 12.3283 32.2847 12.3283C30.8854 12.3283 29.7679 11.2014 29.7679 9.81149C29.7679 8.42159 30.8948 7.29464 32.2847 7.29464C33.6746 7.29464 34.8016 8.42159 34.8016 9.81149ZM41.9483 12.3659C41.7886 8.99445 41.0186 6.00804 38.5487 3.54754C36.0882 1.08704 33.1018 0.316954 29.7303 0.147912C26.2555 -0.049304 15.8407 -0.049304 12.3659 0.147912C9.00385 0.307563 6.01743 1.07764 3.54754 3.53815C1.07764 5.99865 0.316954 8.98506 0.147912 12.3565C-0.049304 15.8313 -0.049304 26.2461 0.147912 29.7209C0.307563 33.0924 1.07764 36.0788 3.54754 38.5393C6.01743 40.9998 8.99445 41.7699 12.3659 41.9389C15.8407 42.1361 26.2555 42.1361 29.7303 41.9389C33.1018 41.7792 36.0882 41.0092 38.5487 38.5393C41.0092 36.0788 41.7793 33.0924 41.9483 29.7209C42.1455 26.2461 42.1455 15.8407 41.9483 12.3659ZM37.4593 33.4492C36.7268 35.2899 35.3087 36.708 33.4586 37.4499C30.6882 38.5487 24.1143 38.2951 21.0528 38.2951C17.9913 38.2951 11.408 38.5393 8.64698 37.4499C6.8063 36.7174 5.38822 35.2993 4.64631 33.4492C3.54754 30.6788 3.8011 24.1049 3.8011 21.0434C3.8011 17.9819 3.55693 11.3986 4.64631 8.63759C5.37883 6.79691 6.79691 5.37883 8.64698 4.63692C11.4174 3.53815 17.9913 3.79171 21.0528 3.79171C24.1143 3.79171 30.6976 3.54754 33.4586 4.63692C35.2993 5.36944 36.7174 6.78751 37.4593 8.63759C38.5581 11.408 38.3045 17.9819 38.3045 21.0434C38.3045 24.1049 38.5581 30.6882 37.4593 33.4492Z" fill="white"/>
</svg>
