<svg width="370" height="355" viewBox="0 0 370 355" fill="none" xmlns="http://www.w3.org/2000/svg">
<path d="M33.6036 322.727H0V225.909H100.811V258.182H59.1423C86.1931 297.07 132.398 322.727 184.82 322.727C224.925 322.727 263.387 307.427 291.745 280.191C320.104 252.956 336.036 216.017 336.036 177.5H369.639C369.639 275.609 286.974 355 184.82 355C122.317 355 67.0391 325.148 33.6036 279.643V322.727ZM0 177.5C0 79.3909 82.6648 0 184.82 0C247.322 0 302.6 29.8523 336.036 75.3568V32.2727H369.639V129.091H268.828V96.8182H310.497C283.446 57.9295 237.241 32.2727 184.82 32.2727C144.715 32.2727 106.252 47.5734 77.8937 74.8088C49.5352 102.044 33.6036 138.983 33.6036 177.5H0Z" fill="#C2D3FF"/>
</svg>
