<svg width="26" height="20" viewBox="0 0 26 20" fill="none" xmlns="http://www.w3.org/2000/svg">
<path d="M25.5074 6.43906C25.7055 6.28164 26 6.42891 26 6.67773V17.0625C26 18.4082 24.9082 19.5 23.5625 19.5H2.4375C1.0918 19.5 0 18.4082 0 17.0625V6.68281C0 6.42891 0.289453 6.28672 0.492578 6.44414C1.63008 7.32773 3.13828 8.45 8.31797 12.2129C9.38945 12.9949 11.1973 14.6402 13 14.6301C14.8129 14.6453 16.6562 12.9645 17.6871 12.2129C22.8668 8.45 24.3699 7.32266 25.5074 6.43906ZM13 13C14.1781 13.0203 15.8742 11.5172 16.7273 10.8977C23.466 6.00742 23.9789 5.58086 25.5328 4.36211C25.8273 4.13359 26 3.77813 26 3.40234V2.4375C26 1.0918 24.9082 0 23.5625 0H2.4375C1.0918 0 0 1.0918 0 2.4375V3.40234C0 3.77813 0.172656 4.12852 0.467187 4.36211C2.02109 5.57578 2.53398 6.00742 9.27266 10.8977C10.1258 11.5172 11.8219 13.0203 13 13Z" fill="white"/>
</svg>
