<svg width="30" height="40" viewBox="0 0 30 40" fill="none" xmlns="http://www.w3.org/2000/svg">
<path d="M25.017 2.56751C25.017 1.91506 24.7579 1.28932 24.2965 0.827966C23.8351 0.366609 23.2094 0.107422 22.557 0.107422C21.9045 0.107422 21.2788 0.366609 20.8174 0.827966C20.3561 1.28932 20.0969 1.91506 20.0969 2.56751V9.94779H25.017V2.56751ZM28.7072 12.4079H1.64618C1.31995 12.4079 1.00709 12.5375 0.77641 12.7681C0.545731 12.9988 0.416138 13.3117 0.416138 13.6379L0.416138 16.098C0.416138 16.4242 0.545731 16.7371 0.77641 16.9678C1.00709 17.1985 1.31995 17.3281 1.64618 17.3281H2.87623V19.7881C2.87666 22.6235 3.85619 25.3717 5.64921 27.5682C7.44223 29.7646 9.93872 31.2745 12.7166 31.8426V39.4689H17.6368V31.8426C20.4146 31.2745 22.9111 29.7646 24.7042 27.5682C26.4972 25.3717 27.4767 22.6235 27.4771 19.7881V17.3281H28.7072C29.0334 17.3281 29.3463 17.1985 29.577 16.9678C29.8076 16.7371 29.9372 16.4242 29.9372 16.098V13.6379C29.9372 13.3117 29.8076 12.9988 29.577 12.7681C29.3463 12.5375 29.0334 12.4079 28.7072 12.4079ZM10.2565 2.56751C10.2565 1.91506 9.99731 1.28932 9.53596 0.827966C9.0746 0.366609 8.44887 0.107422 7.79641 0.107422C7.14395 0.107422 6.51822 0.366609 6.05686 0.827966C5.59551 1.28932 5.33632 1.91506 5.33632 2.56751V9.94779H10.2565V2.56751Z" fill="#31467A"/>
</svg>
