<svg width="21" height="33" viewBox="0 0 21 33" fill="none" xmlns="http://www.w3.org/2000/svg">
<path d="M17.9457 0.423828H3.76403C2.08629 0.423828 0.725098 1.78502 0.725098 3.46276V29.8002C0.725098 31.478 2.08629 32.8391 3.76403 32.8391H17.9457C19.6235 32.8391 20.9847 31.478 20.9847 29.8002V3.46276C20.9847 1.78502 19.6235 0.423828 17.9457 0.423828ZM10.8549 30.8132C9.73428 30.8132 8.82893 29.9078 8.82893 28.7872C8.82893 27.6666 9.73428 26.7613 10.8549 26.7613C11.9755 26.7613 12.8808 27.6666 12.8808 28.7872C12.8808 29.9078 11.9755 30.8132 10.8549 30.8132ZM17.9457 23.9756C17.9457 24.3934 17.6039 24.7353 17.186 24.7353H4.52377C4.10591 24.7353 3.76403 24.3934 3.76403 23.9756V4.2225C3.76403 3.80464 4.10591 3.46276 4.52377 3.46276H17.186C17.6039 3.46276 17.9457 3.80464 17.9457 4.2225V23.9756Z" fill="#31467A"/>
</svg>
