<svg width="49" height="49" viewBox="0 0 49 49" fill="none" xmlns="http://www.w3.org/2000/svg">
<path d="M24.9095 0.202198C11.3321 0.01854 0.247814 11.1194 0.431198 24.717C0.612261 37.7579 11.2149 48.3763 24.2363 48.5576C37.816 48.7436 48.898 37.6428 48.7123 24.0452C48.5336 11.002 37.9309 0.383531 24.9095 0.202198ZM39.5826 38.2414C39.5363 38.2915 39.4796 38.3308 39.4166 38.3565C39.3535 38.3822 39.2855 38.3936 39.2175 38.3901C39.1495 38.3865 39.0831 38.368 39.023 38.3359C38.963 38.3038 38.9107 38.2588 38.8699 38.2042C37.8318 36.8439 36.5604 35.6793 35.1152 34.7647C32.1601 32.8654 28.4159 31.8192 24.5729 31.8192C20.73 31.8192 16.9857 32.8654 14.0306 34.7647C12.5855 35.6789 11.3141 36.8431 10.2759 38.2031C10.2351 38.2577 10.1828 38.3026 10.1228 38.3348C10.0627 38.3669 9.99629 38.3854 9.92829 38.3889C9.86028 38.3925 9.79233 38.381 9.72925 38.3553C9.66616 38.3296 9.6095 38.2903 9.56326 38.2403C6.15751 34.5582 4.22829 29.747 4.14531 24.7286C3.95612 13.4174 13.224 3.94974 24.523 3.92185C35.822 3.89395 45.0005 13.0826 45.0005 24.3799C45.0044 29.5193 43.0692 34.4704 39.5826 38.2414Z" fill="black"/>
<path d="M24.5733 11.3612C22.2845 11.3612 20.215 12.2202 18.7444 13.7813C17.2739 15.3424 16.5392 17.501 16.7052 19.8176C17.0418 24.38 20.5713 28.0997 24.5733 28.0997C28.5752 28.0997 32.0978 24.38 32.4414 19.8188C32.6132 17.5242 31.8843 15.3854 30.3893 13.7953C28.913 12.2261 26.847 11.3612 24.5733 11.3612Z" fill="black"/>
</svg>
