<svg width="134" height="13" viewBox="0 0 134 13" fill="none" xmlns="http://www.w3.org/2000/svg">
<path d="M0.608 0.799999H2.128C2.69333 0.799999 3.09867 0.965333 3.344 1.296C3.6 1.616 3.728 2.08533 3.728 2.704V5.408C3.728 5.93067 3.63733 6.352 3.456 6.672C3.28533 6.98133 3.008 7.184 2.624 7.28L4.032 12H3.376L1.968 7.328H1.248V12H0.608V0.799999ZM1.248 1.408V6.72H2.128C2.46933 6.72 2.71467 6.608 2.864 6.384C3.01333 6.14933 3.088 5.824 3.088 5.408V2.704C3.088 2.288 3.01333 1.968 2.864 1.744C2.71467 1.52 2.46933 1.408 2.128 1.408H1.248ZM9.44925 1.424H7.44925V6.096H9.12925V6.704H7.44925V11.376H9.44925V12H6.80925V0.799999H9.44925V1.424ZM12.3386 0.799999H13.9386C14.504 0.799999 14.9093 0.965333 15.1546 1.296C15.4106 1.616 15.5386 2.08533 15.5386 2.704V6.032C15.5386 6.65067 15.4106 7.12533 15.1546 7.456C14.9093 7.78667 14.504 7.952 13.9386 7.952H12.9786V12H12.3386V0.799999ZM12.9786 1.408V7.344H13.9386C14.28 7.344 14.5253 7.232 14.6746 7.008C14.824 6.77333 14.8986 6.448 14.8986 6.032V2.704C14.8986 2.288 14.824 1.968 14.6746 1.744C14.5253 1.52 14.28 1.408 13.9386 1.408H12.9786ZM20.9306 9.904H18.8666L18.5786 12H17.9226L19.5866 0.783999H20.2266L21.8906 12H21.2346L20.9306 9.904ZM18.9626 9.296H20.8506L20.3866 6.048L19.9066 2.288L19.4266 6.048L18.9626 9.296ZM25.3503 12H24.7103V0.799999H25.3503V12ZM28.5049 0.799999H30.0249C30.5902 0.799999 30.9955 0.965333 31.2409 1.296C31.4969 1.616 31.6249 2.08533 31.6249 2.704V5.408C31.6249 5.93067 31.5342 6.352 31.3529 6.672C31.1822 6.98133 30.9049 7.184 30.5209 7.28L31.9289 12H31.2729L29.8649 7.328H29.1449V12H28.5049V0.799999ZM29.1449 1.408V6.72H30.0249C30.3662 6.72 30.6115 6.608 30.7609 6.384C30.9102 6.14933 30.9849 5.824 30.9849 5.408V2.704C30.9849 2.288 30.9102 1.968 30.7609 1.744C30.6115 1.52 30.3662 1.408 30.0249 1.408H29.1449ZM35.5381 11.056V12H34.5781V11.056H35.5381ZM42.8743 0.799999H44.3943C44.9596 0.799999 45.3649 0.965333 45.6103 1.296C45.8663 1.616 45.9943 2.08533 45.9943 2.704V5.408C45.9943 5.93067 45.9036 6.352 45.7223 6.672C45.5516 6.98133 45.2743 7.184 44.8903 7.28L46.2983 12H45.6423L44.2343 7.328H43.5143V12H42.8743V0.799999ZM43.5143 1.408V6.72H44.3943C44.7356 6.72 44.9809 6.608 45.1303 6.384C45.2796 6.14933 45.3543 5.824 45.3543 5.408V2.704C45.3543 2.288 45.2796 1.968 45.1303 1.744C44.9809 1.52 44.7356 1.408 44.3943 1.408H43.5143ZM51.7155 1.424H49.7155V6.096H51.3955V6.704H49.7155V11.376H51.7155V12H49.0755V0.799999H51.7155V1.424ZM55.6609 6.752L56.1409 10.512L56.6209 6.752L57.4689 0.799999H58.1249L56.4609 12.016H55.8209L54.1569 0.799999H54.8129L55.6609 6.752ZM61.4621 12H60.8221V0.799999H61.4621V12ZM65.6728 6.752L66.1528 10.512L66.6328 6.752L67.4808 0.799999H68.1368L66.4728 12.016H65.8328L64.1688 0.799999H64.8248L65.6728 6.752ZM73.458 1.424H71.458V6.096H73.138V6.704H71.458V11.376H73.458V12H70.818V0.799999H73.458V1.424ZM77.1794 11.056V12H76.2194V11.056H77.1794ZM84.5155 0.799999H86.0355C86.6008 0.799999 87.0062 0.965333 87.2515 1.296C87.5075 1.616 87.6355 2.08533 87.6355 2.704V5.408C87.6355 5.93067 87.5448 6.352 87.3635 6.672C87.1928 6.98133 86.9155 7.184 86.5315 7.28L87.9395 12H87.2835L85.8755 7.328H85.1555V12H84.5155V0.799999ZM85.1555 1.408V6.72H86.0355C86.3768 6.72 86.6222 6.608 86.7715 6.384C86.9208 6.14933 86.9955 5.824 86.9955 5.408V2.704C86.9955 2.288 86.9208 1.968 86.7715 1.744C86.6222 1.52 86.3768 1.408 86.0355 1.408H85.1555ZM93.3567 1.424H91.3567V6.096H93.0367V6.704H91.3567V11.376H93.3567V12H90.7167V0.799999H93.3567V1.424ZM96.9021 12H96.2621V0.799999H96.9021V12ZM102.665 9.904H102.025L100.617 2.688L100.697 4.784V12H100.057V0.799999H100.697L101.865 5.952L102.345 9.056L102.825 5.952L103.993 0.799999H104.633V12H103.993V4.784L104.073 2.688L102.665 9.904ZM110.446 9.904H108.382L108.094 12H107.438L109.102 0.783999H109.742L111.406 12H110.75L110.446 9.904ZM108.478 9.296H110.366L109.902 6.048L109.422 2.288L108.942 6.048L108.478 9.296ZM116.737 6.704H115.777V6.096H117.377V10.4C117.377 10.976 117.249 11.4133 116.993 11.712C116.748 12.0107 116.343 12.16 115.777 12.16C115.212 12.16 114.801 12.0107 114.545 11.712C114.3 11.4133 114.177 10.976 114.177 10.4V2.384C114.177 1.808 114.3 1.376 114.545 1.088C114.801 0.789333 115.212 0.639999 115.777 0.639999C116.343 0.639999 116.748 0.789333 116.993 1.088C117.249 1.376 117.377 1.808 117.377 2.384V4H116.737V2.384C116.737 2.01067 116.663 1.728 116.513 1.536C116.364 1.344 116.119 1.248 115.777 1.248C115.436 1.248 115.191 1.344 115.041 1.536C114.892 1.728 114.817 2.01067 114.817 2.384V10.4C114.817 10.7733 114.892 11.0613 115.041 11.264C115.191 11.456 115.436 11.552 115.777 11.552C116.119 11.552 116.364 11.456 116.513 11.264C116.663 11.0613 116.737 10.7733 116.737 10.4V6.704ZM121.098 12H120.458V0.799999H121.098V12ZM126.812 0.799999H127.452V12H126.812L124.844 3.328L124.892 5.424V12H124.252V0.799999H124.892L126.86 9.472L126.812 7.376V0.799999ZM133.234 1.424H131.234V6.096H132.914V6.704H131.234V11.376H133.234V12H130.594V0.799999H133.234V1.424Z" fill="white"/>
</svg>
