<svg width="236" height="26" viewBox="0 0 236 26" fill="none" xmlns="http://www.w3.org/2000/svg">
<path d="M0 0.763999H27.54V9.188H20.772V6.38H24.732V3.572H2.808V6.38H12.384L12.348 23.192H15.156V6.38H17.964V26H9.54V9.188H0V0.763999ZM60.1298 9.188H41.0138V11.996H55.1978V14.804H38.2058V6.38H57.3218V3.572H35.3978V23.192H57.3218V20.384H38.2058V17.576H60.1298V26H32.5898V0.763999H60.1298V9.188ZM92.7197 9.224H77.2397C76.7117 9.272 76.2197 9.416 75.7637 9.656C75.3077 9.896 74.9117 10.208 74.5757 10.592C74.2397 10.952 73.9757 11.384 73.7837 11.888C73.5917 12.368 73.4957 12.872 73.4957 13.4C73.4957 13.952 73.5917 14.468 73.7837 14.948C73.9757 15.404 74.2397 15.824 74.5757 16.208C74.9117 16.568 75.3077 16.868 75.7637 17.108C76.2197 17.348 76.7117 17.504 77.2397 17.576H87.1037V20.384H77.2397C76.3277 20.312 75.4757 20.084 74.6837 19.7C73.8917 19.316 73.1957 18.812 72.5957 18.188C72.0197 17.54 71.5637 16.808 71.2277 15.992C70.8917 15.176 70.7237 14.3 70.7237 13.364C70.7237 12.476 70.8797 11.624 71.1917 10.808C71.5277 9.992 71.9837 9.272 72.5597 8.648C73.1357 8.024 73.8077 7.52 74.5757 7.136C75.3437 6.728 76.1837 6.488 77.0957 6.416H89.9117V3.572H77.2397V3.608C75.9437 3.68 74.7317 3.992 73.6037 4.544C72.4997 5.072 71.5277 5.78 70.6877 6.668C69.8477 7.532 69.1877 8.54 68.7077 9.692C68.2277 10.844 67.9877 12.08 67.9877 13.4C67.9877 14.696 68.2277 15.932 68.7077 17.108C69.1877 18.26 69.8477 19.28 70.6877 20.168C71.5277 21.032 72.4997 21.74 73.6037 22.292C74.7317 22.82 75.9437 23.12 77.2397 23.192H89.9117V17.576H92.7197V26H77.2397C75.5597 25.928 73.9877 25.556 72.5237 24.884C71.0597 24.188 69.7757 23.276 68.6717 22.148C67.5917 20.996 66.7397 19.676 66.1157 18.188C65.4917 16.7 65.1797 15.104 65.1797 13.4C65.1797 11.696 65.4917 10.1 66.1157 8.612C66.7397 7.1 67.5917 5.78 68.6717 4.652C69.7757 3.524 71.0597 2.624 72.5237 1.952C73.9877 1.256 75.5597 0.871999 77.2397 0.799998L92.7197 0.763999V9.224ZM116.886 0.763999H125.31V26H116.886V17.612H100.578V23.192H103.386V20.384H106.194V26H97.7695V14.768H119.73V23.192H122.502V3.572H119.73V11.996H103.386V3.572H100.578V11.996H97.7695V0.763999H106.194V9.188H116.886V0.763999ZM157.899 17.612H130.359V9.188H152.283V11.996H133.131V14.804H155.091V9.188H157.899V17.612ZM190.489 9.188H171.373V11.996H185.557V14.804H168.565V6.38H187.681V3.572H165.757V23.192H168.565V17.576H171.373V26H162.949V0.763999H190.489V9.188ZM194.098 26V0.763999H202.522V20.384H199.714V3.572H196.906V23.192H202.522V26H194.098ZM235.211 0.763999L226.499 13.364L235.211 26H225.023L221.387 20.744L217.751 26H207.562L219.695 8.432L216.347 3.572H212.927L216.275 8.432L214.583 10.88L207.562 0.763999H217.787L223.115 8.432L212.927 23.192H216.275L221.387 15.812L226.499 23.192H229.883L223.079 13.364L229.847 3.572H226.427L224.807 5.948L223.079 3.464L225.023 0.763999H235.211Z" fill="white"/>
</svg>
