<svg width="43" height="35" viewBox="0 0 43 35" fill="none" xmlns="http://www.w3.org/2000/svg">
<path d="M37.9435 8.52073C37.9702 8.89467 37.9702 9.26868 37.9702 9.64262C37.9702 21.0481 29.2892 34.1899 13.4229 34.1899C8.5348 34.1899 3.99399 32.7742 0.174316 30.3169C0.868824 30.3969 1.53653 30.4237 2.25776 30.4237C6.29103 30.4237 10.0039 29.0615 12.9688 26.7376C9.17587 26.6574 5.99726 24.1733 4.9021 20.7543C5.43636 20.8344 5.97054 20.8879 6.53153 20.8879C7.30612 20.8879 8.08079 20.781 8.80193 20.5941C4.84874 19.7927 1.88374 16.3203 1.88374 12.1267V12.0199C3.03227 12.661 4.36792 13.0616 5.78349 13.115C3.45964 11.5657 1.93718 8.92139 1.93718 5.92975C1.93718 4.32713 2.36448 2.85803 3.11243 1.5759C7.35948 6.81123 13.7434 10.2302 20.9018 10.6042C20.7683 9.96311 20.6882 9.29541 20.6882 8.62762C20.6882 3.87303 24.5345 0 29.3158 0C31.7999 0 34.0436 1.04172 35.6195 2.72451C37.5694 2.35057 39.4391 1.62934 41.0953 0.641065C40.4541 2.64442 39.0919 4.32721 37.3023 5.39557C39.0386 5.20869 40.7213 4.72778 42.2705 4.06008C41.0954 5.7695 39.6263 7.29196 37.9435 8.52073Z" fill="white"/>
</svg>
